<svg width="25" height="24" viewBox="0 0 25 24" fill="none" xmlns="http://www.w3.org/2000/svg">
<path fill-rule="evenodd" clip-rule="evenodd" d="M12.333 0C5.70601 0 0.333008 5.373 0.333008 12C0.333008 18.627 5.70601 24 12.333 24C18.96 24 24.333 18.627 24.333 12C24.333 5.373 18.96 0 12.333 0ZM17.895 8.161C17.715 10.058 16.933 14.663 16.536 16.788C16.368 17.688 16.036 17.989 15.716 18.018C15.019 18.082 14.49 17.557 13.815 17.115C12.759 16.423 12.162 15.992 11.137 15.316C9.95201 14.535 10.72 14.106 11.395 13.405C11.572 13.221 14.642 10.428 14.702 10.175C14.709 10.143 14.717 10.025 14.646 9.963C14.575 9.901 14.472 9.922 14.398 9.939C14.292 9.963 12.605 11.078 9.33601 13.284C8.85701 13.613 8.42301 13.773 8.03401 13.765C7.60601 13.756 6.78201 13.523 6.16901 13.323C5.41801 13.079 4.82001 12.949 4.87201 12.535C4.89901 12.319 5.19601 12.098 5.76401 11.872C9.26201 10.348 11.595 9.343 12.762 8.857C16.095 7.471 16.787 7.23 17.239 7.222C17.805 7.214 17.941 7.681 17.895 8.161Z" fill="#0062F0"/>
</svg>
