<svg width="25" height="24" viewBox="0 0 25 24" fill="none" xmlns="http://www.w3.org/2000/svg">
<g clip-path="url(#clip0_607_3864)">
<path fill-rule="evenodd" clip-rule="evenodd" d="M21.1296 3.48776C18.8836 1.23976 15.8976 0.000755859 12.7166 -0.000244141C6.16163 -0.000244141 0.826633 5.33376 0.823633 11.8918C0.822633 13.9878 1.37063 16.0338 2.41163 17.8378L0.723633 23.9998L7.02763 22.3458C8.76463 23.2938 10.7206 23.7928 12.7106 23.7938H12.7156C19.2696 23.7938 24.6056 18.4588 24.6086 11.9008C24.6106 8.72376 23.3746 5.73476 21.1296 3.48776ZM12.7166 21.7848H12.7126C10.9386 21.7848 9.19963 21.3078 7.68163 20.4068L7.32063 20.1928L3.57963 21.1738L4.57863 17.5258L4.34363 17.1518C3.35363 15.5778 2.83163 13.7588 2.83263 11.8918C2.83463 6.44176 7.26963 2.00776 12.7216 2.00776C15.3616 2.00776 17.8436 3.03776 19.7096 4.90576C21.5756 6.77476 22.6026 9.25776 22.6016 11.8988C22.5986 17.3508 18.1646 21.7848 12.7166 21.7848ZM18.1386 14.3818C17.8416 14.2328 16.3806 13.5138 16.1076 13.4148C15.8356 13.3158 15.6376 13.2658 15.4386 13.5628C15.2396 13.8598 14.6716 14.5298 14.4976 14.7288C14.3246 14.9268 14.1506 14.9518 13.8536 14.8028C13.5566 14.6538 12.5986 14.3408 11.4636 13.3278C10.5806 12.5398 9.98363 11.5668 9.81063 11.2688C9.63763 10.9708 9.79263 10.8108 9.94063 10.6628C10.0746 10.5298 10.2376 10.3158 10.3866 10.1418C10.5366 9.96976 10.5856 9.84576 10.6856 9.64676C10.7846 9.44876 10.7356 9.27476 10.6606 9.12576C10.5856 8.97776 9.99163 7.51476 9.74463 6.91976C9.50363 6.33976 9.25863 6.41876 9.07563 6.40976C8.90263 6.40076 8.70463 6.39976 8.50563 6.39976C8.30763 6.39976 7.98563 6.47376 7.71363 6.77176C7.44163 7.06976 6.67363 7.78876 6.67363 9.25076C6.67363 10.7138 7.73863 12.1268 7.88663 12.3248C8.03463 12.5228 9.98163 15.5248 12.9626 16.8118C13.6716 17.1178 14.2256 17.3008 14.6566 17.4378C15.3686 17.6638 16.0166 17.6318 16.5286 17.5558C17.0996 17.4708 18.2866 16.8368 18.5346 16.1428C18.7826 15.4488 18.7826 14.8528 18.7076 14.7298C18.6336 14.6048 18.4356 14.5308 18.1386 14.3818Z" fill="#0062F0"/>
</g>
<defs>
<clipPath id="clip0_607_3864">
<rect width="24" height="24" fill="white" transform="translate(0.666016)"/>
</clipPath>
</defs>
</svg>
